<svg width="96" height="96" viewBox="0 0 96 96" xmlns="http://www.w3.org/2000/svg" xmlns:xlink="http://www.w3.org/1999/xlink"><title>Group 2</title><defs><circle id="g" cx="48" cy="48" r="48"/><path id="a" d="M18 26.571h12v4.286H18z"/><mask id="i" x="0" y="0" width="12" height="4.286" fill="#fff"><use xlink:href="#a"/></mask><path d="M24 31.714c5.143 0 8.571-6.66 8.571-9.428v-9.429H15.43v9.429c0 2.769 3.428 9.428 8.571 9.428z" id="b"/><mask id="j" x="0" y="0" width="17.143" height="18.857" fill="#fff"><use xlink:href="#b"/></mask><path d="M15.429 23.143c-.947 0-1.715-2.025-1.715-3.919 0-1.893.34-2.938 1.286-2.938.947 0 2.143 1.535 2.143 3.428 0 1.894-.768 3.429-1.714 3.429z" id="c"/><mask id="k" x="0" y="0" width="3.429" height="6.857" fill="#fff"><use xlink:href="#c"/></mask><path d="M32.571 23.143c.947 0 1.715-2.025 1.715-3.919 0-1.893-.34-2.938-1.286-2.938-.947 0-2.143 1.535-2.143 3.428 0 1.894.768 3.429 1.714 3.429z" id="d"/><mask id="l" x="0" y="0" width="3.429" height="6.857" fill="#fff"><use xlink:href="#d"/></mask><path d="M18 29.143v1.714c0 4.616-15.429 4.286-15.429 12.594v.931c0 1.525 1.26 2.76 2.796 2.76h37.266c1.544 0 2.796-1.239 2.796-2.76v-.931C45.429 35.143 30 35.473 30 30.857v-1.714H18z" id="e"/><mask id="m" x="0" y="0" width="42.857" height="18" fill="#fff"><use xlink:href="#e"/></mask><path d="M32.571 19.714s1.715-5.143 1.715-9.428c0-4.154-1.715-7.715-6-7.715C27.857 1.714 26.795.857 24 .857c-6.381 0-10.286 4.286-10.286 9.429 0 4.285 1.715 9.428 1.715 9.428H32.57z" id="f"/><mask id="n" x="0" y="0" width="20.571" height="18.857" fill="#fff"><use xlink:href="#f"/></mask></defs><g fill="none" fill-rule="evenodd"><mask id="h" fill="#fff"><use xlink:href="#g"/></mask><use fill="#ECECEC" xlink:href="#g"/><g mask="url(#h)"><g transform="translate(24 24)" stroke="#CECECE" stroke-width="2.154" fill="#CECECE"><use mask="url(#i)" xlink:href="#a"/><use mask="url(#j)" xlink:href="#b"/><use mask="url(#k)" xlink:href="#c"/><use mask="url(#l)" xlink:href="#d"/><use mask="url(#m)" xlink:href="#e"/><use mask="url(#n)" xlink:href="#f"/></g></g></g></svg>